<?xml version="1.0" standalone="no"?><!DOCTYPE svg PUBLIC "-//W3C//DTD SVG 1.1//EN" "http://www.w3.org/Graphics/SVG/1.1/DTD/svg11.dtd"><svg t="1638241267429" class="icon" viewBox="0 0 1024 1024" version="1.1" xmlns="http://www.w3.org/2000/svg" p-id="14039" xmlns:xlink="http://www.w3.org/1999/xlink" width="200" height="200"><defs><style type="text/css"></style></defs><path d="M230.290286 124.562286h394.861714l-14.848 41.142857H230.290286C146.285714 165.705143 77.714286 234.861714 77.714286 318.866286v440.576a154.477714 154.477714 0 0 0 122.294857 150.272c18.285714 3.986286 37.156571 2.852571 55.990857 2.852571v41.142857h-25.709714C123.428571 953.709714 36.571429 866.267429 36.571429 759.405714V318.829714c0-106.861714 86.857143-194.304 193.718857-194.304zM716.580571 0h141.129143l-275.419428 739.437714c-51.419429 137.142857-113.700571 279.990857-282.843429 284.562286v-111.433143c63.414857-10.276571 104.009143-45.129143 125.696-104.009143 7.424-19.419429 11.446857-39.424 11.446857-60.013714s-3.986286-41.142857-11.446857-60.562286L262.290286 269.129143h130.304l106.861714 334.299428zM987.428571 318.866286v634.843428H533.138286c9.142857-13.714286 18.870857-26.843429 25.709714-41.728h387.437714V318.829714a154.221714 154.221714 0 0 0-102.290285-145.152l14.299428-38.290285C936.009143 161.682286 987.428571 237.092571 987.428571 318.829714z" fill="#1296db" p-id="14040"></path></svg>